<svg width="33" height="28" viewBox="0 0 33 28" fill="none" xmlns="http://www.w3.org/2000/svg">
<path fill-rule="evenodd" clip-rule="evenodd" d="M16.5 7.50098C12.081 7.50098 8.5 11.082 8.5 15.501C8.5 19.919 12.081 23.501 16.5 23.501C20.918 23.501 24.5 19.919 24.5 15.501C24.5 11.083 20.918 7.50098 16.5 7.50098ZM21.055 19.406C18.899 21.922 15.112 22.213 12.596 20.056C10.079 17.9 9.789 14.112 11.946 11.597C14.101 9.07998 17.889 8.78998 20.405 10.947C22.92 13.102 23.211 16.891 21.055 19.406Z" fill="white"/>
<path fill-rule="evenodd" clip-rule="evenodd" d="M16.5 11.501C14.291 11.501 12.501 13.292 12.5 15.5V15.502C12.5 15.777 12.724 16.002 13 16.002C13.276 16.002 13.5 15.777 13.5 15.502V15.5C13.501 13.844 14.843 12.501 16.5 12.501C16.776 12.501 17 12.277 17 12.001C17 11.725 16.776 11.501 16.5 11.501Z" fill="white"/>
<path fill-rule="evenodd" clip-rule="evenodd" d="M29.992 6.542L25.658 5.819L24.285 2.385C23.826 1.24 22.732 0.5 21.5 0.5H11.5C10.268 0.5 9.174 1.24 8.714 2.386L7.342 5.819L3.009 6.542C1.555 6.783 0.5 8.027 0.5 9.5V24.5C0.5 26.154 1.846 27.5 3.5 27.5H29.5C31.154 27.5 32.5 26.154 32.5 24.5V9.5C32.5 8.027 31.445 6.783 29.992 6.542ZM30.5 24.5C30.5 25.053 30.053 25.5 29.5 25.5H3.5C2.947 25.5 2.5 25.053 2.5 24.5V9.5C2.5 9.011 2.854 8.594 3.336 8.514L8.78 7.607L10.571 3.129C10.724 2.75 11.091 2.5 11.5 2.5H21.5C21.908 2.5 22.275 2.749 22.428 3.129L24.219 7.607L29.664 8.514C30.146 8.594 30.5 9.011 30.5 9.5V24.5Z" fill="white"/>
</svg>
