<svg width="11" height="10" viewBox="0 0 11 10" fill="none" xmlns="http://www.w3.org/2000/svg">
<path fill-rule="evenodd" clip-rule="evenodd" d="M10.5701 1.12731C10.7759 1.33154 10.7772 1.66395 10.573 1.86977C8.86055 3.59554 7.49474 5.32325 6.55694 6.62011C6.08838 7.26808 5.72752 7.80731 5.48451 8.18336C5.36302 8.37136 5.27105 8.51848 5.20984 8.61793C5.17924 8.66764 5.15634 8.70543 5.1413 8.73044L5.12464 8.75826L5.12077 8.76478L5.11996 8.76616C5.02773 8.92279 4.86092 9.02078 4.67919 9.02484C4.49771 9.02891 4.32702 8.93893 4.22782 8.78695C4.22777 8.78688 4.2274 8.78631 4.22735 8.78624L4.22682 8.78544L4.2203 8.77571C4.21395 8.76632 4.20362 8.75121 4.18929 8.73082C4.16061 8.69003 4.11596 8.62814 4.05522 8.54866C3.93371 8.38963 3.74814 8.16059 3.49778 7.88939C2.99656 7.34644 2.23892 6.6381 1.2191 5.98378C0.975059 5.8272 0.904157 5.50244 1.06073 5.2584C1.21731 5.01436 1.54207 4.94346 1.78611 5.10003C2.89566 5.81193 3.72044 6.58262 4.26929 7.17716C4.40396 7.32303 4.5222 7.45851 4.62416 7.58019C4.87535 7.1926 5.23908 6.65067 5.70609 6.00484C6.6665 4.67671 8.06713 2.90441 9.82766 1.13019C10.0319 0.924368 10.3643 0.92308 10.5701 1.12731Z" fill="white"/>
</svg>
