<svg width="20" height="21" viewBox="0 0 20 21" fill="none" xmlns="http://www.w3.org/2000/svg">
<path fill-rule="evenodd" clip-rule="evenodd" d="M10 0.428711C15.5225 0.428711 20 4.90625 20 10.4287C20 15.9512 15.5225 20.4287 10 20.4287C4.47754 20.4287 0 15.9512 0 10.4287C0 4.90625 4.47754 0.428711 10 0.428711ZM8.61328 5.39616H9.83561C10.0586 5.39616 10.2425 5.58008 10.2425 5.80306V10.5133H14.541C14.7656 10.5133 14.9479 10.6973 14.9479 10.9202V12.1426C14.9479 12.3672 14.764 12.5495 14.541 12.5495H8.20475V5.80306C8.20475 5.57845 8.38867 5.39616 8.61328 5.39616ZM10 2.69922C14.2692 2.69922 17.7295 6.15951 17.7295 10.4287C17.7295 14.6979 14.2692 18.1582 10 18.1582C5.73079 18.1582 2.27051 14.6979 2.27051 10.4287C2.27051 6.16113 5.73079 2.69922 10 2.69922Z" fill="#FF8D72"/>
</svg>
