<svg width="16" height="21" viewBox="0 0 16 21" fill="none" xmlns="http://www.w3.org/2000/svg">
<path d="M13.6423 2.78821C12.8827 2.02163 11.9954 1.42742 11.0035 1.02084C8.01852 -0.198104 4.61852 0.500053 2.3428 2.79137C0.833228 4.31557 0 6.2561 0 8.26267C0 10.2661 0.832706 12.2087 2.3428 13.7314L3.17342 14.5611C4.8404 16.2216 6.27793 17.6553 7.51132 19.6482L7.99111 20.4287L8.47403 19.6482C9.70742 17.6553 11.1449 16.2216 12.8091 14.5629L13.642 13.7287C16.7859 10.5593 16.7859 5.95794 13.6423 2.78821ZM10.4738 11.1237C9.10338 12.5074 6.88196 12.5074 5.51126 11.1237C4.14108 9.74478 4.14108 7.50531 5.51126 6.12373C6.88196 4.74478 9.10338 4.74478 10.4738 6.12373C11.8411 7.50531 11.8411 9.74425 10.4738 11.1237Z" fill="#FF8D72"/>
</svg>
