<svg width="22" height="21" viewBox="0 0 22 21" fill="none" xmlns="http://www.w3.org/2000/svg">
<path d="M17.6298 7.64C19.5984 7.64 21.1998 6.0386 21.1998 4.07C21.1998 2.1014 19.5984 0.5 17.6298 0.5C15.6612 0.5 14.0598 2.1014 14.0598 4.07C14.0598 6.0386 15.6612 7.64 17.6298 7.64ZM19.1598 15.8V9.4658C18.6498 9.6086 18.1398 9.68 17.6298 9.68C17.4564 9.68 17.2932 9.68 17.1198 9.68V15.8C17.1198 17.4932 15.753 18.86 14.0598 18.86H5.89981C4.2066 18.86 2.8398 17.4932 2.8398 15.8V7.64C2.8398 5.9468 4.2066 4.58 5.89981 4.58H12.0198C12.0198 4.4168 12.0198 4.2434 12.0198 4.07C12.0198 3.56 12.0912 3.05 12.234 2.54H5.89981C3.0846 2.54 0.799805 4.8248 0.799805 7.64V15.8C0.799805 18.6152 3.0846 20.9 5.89981 20.9H14.0598C16.875 20.9 19.1598 18.6152 19.1598 15.8Z" fill="#111322"/>
</svg>
